<svg width="96" height="85" viewBox="0 0 96 85" fill="none" xmlns="http://www.w3.org/2000/svg">
  <path d="M78.6898 23.2666V69.7999H8.99414V23.2666L43.8429 0.000976562L78.6898 23.2666Z" fill="#FFA001" />
  <path d="M78.6896 23.2666V69.7999H43.8428V0.000976562L78.6896 23.2666Z" fill="#F87F02" />
  <path d="M0 23.2667L8.994 0H43.8424L34.8484 23.2667H0Z" fill="#FFDA2D" />
  <path d="M87.684 23.2667L78.69 0H43.8418L52.8358 23.2667H87.684Z" fill="#FCBE00" />
  <path d="M20.1963 50.3008H25.8213V56.56H20.1963V50.3008Z" fill="#FFDA2D" />
  <path d="M95.9996 62.0455C95.9996 74.6871 86.7896 84.9355 75.4289 84.9355C64.0664 84.9355 54.8564 74.6871 54.8564 62.0455C54.8564 49.4018 64.0664 39.1533 75.4289 39.1533C86.7896 39.1533 95.9996 49.4016 95.9996 62.0455Z" fill="#83E470" />
  <path d="M96.0003 62.0455C96.0003 74.6871 86.7903 84.9355 75.4297 84.9355V39.1533C86.7903 39.1533 96.0003 49.4016 96.0003 62.0455Z" fill="#01B763" />
  <path d="M86.1937 58.3379L75.4293 70.3158L73.5637 72.392L64.6631 62.4876L68.6418 58.0623L73.5637 63.5391L75.4293 61.4633L82.215 53.9126L86.1937 58.3379Z" fill="#F3FDFF" />
  <path d="M86.1941 58.3379L75.4297 70.3158V61.4633L82.2153 53.9126L86.1941 58.3379Z" fill="#D7F3F7" />
</svg>