<svg width="22" height="16" viewBox="0 0 22 16" fill="none" xmlns="http://www.w3.org/2000/svg">
  <mask id="mask0_1048_742" style="mask-type:luminance" maskUnits="userSpaceOnUse" x="0" y="0" width="22" height="16">
    <path d="M0 0H21.6372V15.026H0V0Z" fill="white" />
  </mask>
  <g mask="url(#mask0_1048_742)">
    <path d="M21.5306 11.9595V12.4251C21.5294 12.6071 21.4791 12.7819 21.3789 12.9498C21.2788 13.1177 21.1369 13.2657 20.9534 13.3943L19.1571 14.6425C18.9765 14.7687 18.7681 14.866 18.5324 14.9345C18.2962 15.0031 18.0508 15.0379 17.7955 15.0388H17.715C17.4302 15.0302 17.1454 15.0169 16.8606 14.999C16.5763 14.9812 16.2927 14.9589 16.0101 14.9317C15.7271 14.9045 15.4451 14.8729 15.1644 14.8368C14.8836 14.8003 14.604 14.7597 14.3261 14.7143C14.0482 14.6689 13.7715 14.619 13.4965 14.5647C13.2221 14.5107 12.9489 14.4519 12.6785 14.3887C12.4076 14.3254 12.139 14.2577 11.8721 14.1859C11.6058 14.1141 11.3418 14.0379 11.0808 13.9572C10.8191 13.8769 10.5609 13.7921 10.305 13.7033C10.0492 13.6141 9.79675 13.5212 9.54666 13.4239C9.29715 13.327 9.05112 13.226 8.80798 13.1206C8.56542 13.0155 8.32575 12.9064 8.09013 12.7937C7.85452 12.6805 7.62296 12.5642 7.39487 12.4437C7.16678 12.3233 6.94332 12.1992 6.72334 12.0714C6.50393 11.9437 6.28858 11.8123 6.07728 11.6776C5.86656 11.543 5.65989 11.4047 5.45785 11.2632C5.25639 11.1217 5.05898 10.9773 4.86679 10.8293C4.67459 10.6816 4.48702 10.5308 4.30467 10.3767C4.12289 10.2226 3.94575 10.066 3.77381 9.90626C3.60188 9.74648 3.43515 9.58426 3.27422 9.4188C3.1127 9.25375 2.95756 9.08626 2.80762 8.91593C2.6571 8.74601 2.51296 8.57325 2.3746 8.39847C2.23566 8.22368 2.10309 8.04646 1.97631 7.86721C1.84953 7.68837 1.72854 7.50709 1.61334 7.32379C1.49871 7.14089 1.38988 6.95597 1.28741 6.76942C1.18495 6.58287 1.08827 6.3943 0.997959 6.2045C0.908229 6.01471 0.824287 5.8237 0.746714 5.63107C0.669141 5.43885 0.597935 5.245 0.533677 5.05034C0.468839 4.85528 0.410949 4.65981 0.358847 4.46312C0.307324 4.26644 0.26217 4.06894 0.223383 3.87063C0.185175 3.67232 0.152757 3.47361 0.127285 3.27449C0.101813 3.07537 0.0832878 2.87585 0.0711308 2.67592C0.0566581 2.48531 0.0989183 2.30079 0.196753 2.12276C0.294588 1.94432 0.439894 1.78779 0.633248 1.65315L2.41512 0.407334C2.59863 0.279184 2.80993 0.179827 3.0496 0.109669C3.28927 0.0399164 3.53878 0.0042291 3.79871 0.00341797H4.45171C4.55013 0.00341797 4.64854 0.00868991 4.7458 0.019234C4.84305 0.029778 4.93857 0.0451884 5.03235 0.0658709C5.12614 0.0861477 5.2176 0.111697 5.30618 0.142112C5.39475 0.172122 5.47927 0.206998 5.56032 0.24593C5.64136 0.285267 5.71778 0.328254 5.78956 0.375702C5.86135 0.422745 5.92734 0.473437 5.98813 0.527779C6.04891 0.582121 6.10333 0.639302 6.15196 0.698916C6.20059 0.758936 6.24227 0.821389 6.27758 0.885869L7.85452 3.82156C7.91762 3.9416 7.95641 4.06488 7.97088 4.19222C7.98477 4.31956 7.97377 4.44568 7.93788 4.571C7.90141 4.6959 7.84178 4.81554 7.75784 4.92868C7.67448 5.04223 7.57028 5.14564 7.44581 5.23851L6.79223 5.72191C6.74302 5.75841 6.69844 5.79734 6.6585 5.83911C6.61856 5.88088 6.5844 5.92468 6.55545 5.97051C6.52593 6.01674 6.50277 6.06378 6.48541 6.11245C6.46804 6.16111 6.45646 6.21059 6.45067 6.26047C6.44546 6.31076 6.44604 6.36064 6.45299 6.41052C6.45994 6.4608 6.47267 6.50987 6.4912 6.55813C6.5103 6.6068 6.53461 6.65384 6.56472 6.69926C6.5954 6.74468 6.63071 6.78807 6.67181 6.82944C7.36187 7.53224 8.13645 8.18637 8.99554 8.79143C9.85406 9.39609 10.7832 9.94276 11.783 10.4302C11.8414 10.457 11.9034 10.4805 11.9682 10.5C12.0325 10.5198 12.0991 10.5357 12.1674 10.5474C12.2357 10.5592 12.3046 10.5669 12.3746 10.5709C12.4447 10.5746 12.5153 10.5742 12.5853 10.5697C12.6554 10.5653 12.7243 10.5567 12.792 10.5442C12.8603 10.5312 12.9263 10.515 12.9906 10.4947C13.0543 10.4744 13.1156 10.4501 13.1741 10.4229C13.2326 10.3953 13.287 10.3645 13.3379 10.3305L14.039 9.86489C14.1721 9.7777 14.3192 9.70471 14.4813 9.64631C14.6433 9.5875 14.8135 9.54573 14.9918 9.52019C15.1707 9.49504 15.3508 9.48734 15.5325 9.49707C15.7143 9.50721 15.8903 9.53438 16.0617 9.57858L20.2524 10.6833C20.345 10.7076 20.4347 10.7364 20.521 10.7696C20.6078 10.8033 20.69 10.841 20.7682 10.8836C20.8463 10.9258 20.9198 10.972 20.9882 11.0219C21.0565 11.0718 21.119 11.1253 21.1757 11.1821C21.2325 11.2385 21.2828 11.2981 21.3268 11.3601C21.3702 11.4218 21.4073 11.4858 21.4374 11.5519C21.4675 11.6176 21.4906 11.6849 21.5063 11.7531C21.5213 11.8216 21.5294 11.8906 21.5306 11.9595Z" fill="white" />
  </g>
</svg>