<svg width="159" height="160" viewBox="0 0 159 160" fill="none" xmlns="http://www.w3.org/2000/svg">
  <mask id="mask0_906_1961" style="mask-type:luminance" maskUnits="userSpaceOnUse" x="17" y="64" width="95" height="97">
    <path d="M85.7861 64.6406L111.479 135.386L43.682 160.009L17.9887 89.2634L85.7861 64.6406Z" fill="white" />
  </mask>
  <g mask="url(#mask0_906_1961)">
    <mask id="mask1_906_1961" style="mask-type:luminance" maskUnits="userSpaceOnUse" x="-6" y="-3" width="177" height="170">
      <path d="M59.0246 -2.73144L170.24 79.8853L105.824 166.609L-5.39519 83.9803L59.0246 -2.73144Z" fill="white" />
    </mask>
    <g mask="url(#mask1_906_1961)">
      <mask id="mask2_906_1961" style="mask-type:luminance" maskUnits="userSpaceOnUse" x="-6" y="-3" width="177" height="170">
        <path d="M59.0246 -2.73144L170.24 79.8853L105.824 166.609L-5.39519 83.9803L59.0246 -2.73144Z" fill="white" />
      </mask>
      <g mask="url(#mask2_906_1961)">
        <mask id="mask3_906_1961" style="mask-type:luminance" maskUnits="userSpaceOnUse" x="18" y="53" width="102" height="98">
          <path d="M55.1482 53.7028L119.902 101.803L83.4852 150.819L18.7354 102.73L55.1482 53.7028Z" fill="white" />
        </mask>
        <g mask="url(#mask3_906_1961)">
          <mask id="mask4_906_1961" style="mask-type:luminance" maskUnits="userSpaceOnUse" x="18" y="53" width="102" height="98">
            <path d="M55.1482 53.7028L119.902 101.803L83.4967 150.814L18.7428 102.714L55.1482 53.7028Z" fill="white" />
          </mask>
          <g mask="url(#mask4_906_1961)">
            <path d="M56.8014 81.2931C47.7623 82.6731 34.5854 77.1103 27.0823 92.5167C19.4283 108.225 41.1571 118.854 51.3442 125.946C56.7579 129.728 75.5146 149.973 87.9338 142.217C98.8057 135.44 97.3616 124.43 93.5765 109.917C90.1855 96.9556 96.1145 83.9977 86.3179 76.8684C77.1459 70.2029 62.3248 80.4601 56.8014 81.2931Z" fill="#15FF00" />
          </g>
        </g>
      </g>
    </g>
  </g>
  <mask id="mask5_906_1961" style="mask-type:luminance" maskUnits="userSpaceOnUse" x="21" y="24" width="41" height="49">
    <path d="M48.0264 24.9697L61.9436 63.29L35.4142 72.925L21.4969 34.6047L48.0264 24.9697Z" fill="white" />
  </mask>
  <g mask="url(#mask5_906_1961)">
    <mask id="mask6_906_1961" style="mask-type:luminance" maskUnits="userSpaceOnUse" x="-6" y="-3" width="177" height="170">
      <path d="M59.0266 -2.73291L170.242 79.8839L105.826 166.607L-5.39323 83.9788L59.0266 -2.73291Z" fill="white" />
    </mask>
    <g mask="url(#mask6_906_1961)">
      <mask id="mask7_906_1961" style="mask-type:luminance" maskUnits="userSpaceOnUse" x="-6" y="-3" width="177" height="170">
        <path d="M59.0266 -2.73291L170.242 79.8839L105.826 166.607L-5.39323 83.9788L59.0266 -2.73291Z" fill="white" />
      </mask>
      <g mask="url(#mask7_906_1961)">
        <path d="M54.3884 47.657C55.2468 57.6285 50.61 65.9985 44.012 66.3486C37.4024 66.7028 31.3509 58.9041 30.481 48.9368C29.6184 38.9538 34.2708 30.5911 40.8532 30.2337C47.4669 29.8909 53.5185 37.6896 54.3884 47.657Z" fill="#15FF00" />
      </g>
    </g>
  </g>
  <mask id="mask8_906_1961" style="mask-type:luminance" maskUnits="userSpaceOnUse" x="60" y="18" width="46" height="48">
    <path d="M92.5049 18.8267L105.352 54.1992L72.9267 65.9753L60.08 30.6028L92.5049 18.8267Z" fill="white" />
  </mask>
  <g mask="url(#mask8_906_1961)">
    <mask id="mask9_906_1961" style="mask-type:luminance" maskUnits="userSpaceOnUse" x="-6" y="-3" width="177" height="170">
      <path d="M59.0256 -2.7312L170.241 79.8856L105.825 166.609L-5.39421 83.9805L59.0256 -2.7312Z" fill="white" />
    </mask>
    <g mask="url(#mask9_906_1961)">
      <mask id="mask10_906_1961" style="mask-type:luminance" maskUnits="userSpaceOnUse" x="-6" y="-3" width="177" height="170">
        <path d="M59.0256 -2.7312L170.241 79.8856L105.825 166.609L-5.39421 83.9805L59.0256 -2.7312Z" fill="white" />
      </mask>
      <g mask="url(#mask10_906_1961)">
        <path d="M94.457 48.0298C90.5949 58.5688 82.0519 65.0471 75.3954 62.4728C68.7389 59.8986 66.4751 49.2515 70.3487 38.7083C74.2066 28.1579 82.7423 21.6953 89.4103 24.2653C96.0669 26.8395 98.3264 37.4751 94.457 48.0298Z" fill="#15FF00" />
      </g>
    </g>
  </g>
  <mask id="mask11_906_1961" style="mask-type:luminance" maskUnits="userSpaceOnUse" x="93" y="44" width="50" height="44">
    <path d="M131.881 44.5637L142.586 74.0409L104.266 87.9581L93.5606 58.4809L131.881 44.5637Z" fill="white" />
  </mask>
  <g mask="url(#mask11_906_1961)">
    <mask id="mask12_906_1961" style="mask-type:luminance" maskUnits="userSpaceOnUse" x="-6" y="-3" width="177" height="170">
      <path d="M59.0256 -2.73242L170.241 79.8844L105.825 166.608L-5.39421 83.9793L59.0256 -2.73242Z" fill="white" />
    </mask>
    <g mask="url(#mask12_906_1961)">
      <mask id="mask13_906_1961" style="mask-type:luminance" maskUnits="userSpaceOnUse" x="-6" y="-3" width="177" height="170">
        <path d="M59.0256 -2.73242L170.241 79.8844L105.825 166.608L-5.39421 83.9793L59.0256 -2.73242Z" fill="white" />
      </mask>
      <g mask="url(#mask13_906_1961)">
        <path d="M125.091 76.5751C116.24 83.1391 105.592 84.0349 101.331 78.5834C97.0545 73.1246 100.775 63.38 109.626 56.816C118.488 50.2479 129.125 49.3562 133.397 54.8035C137.674 60.2623 133.953 70.0069 125.091 76.5751Z" fill="#15FF00" />
      </g>
    </g>
  </g>
  <mask id="mask14_906_1961" style="mask-type:luminance" maskUnits="userSpaceOnUse" x="99" y="87" width="52" height="43">
    <path d="M140.974 87.9705L150.609 114.5L109.341 129.488L99.7056 102.958L140.974 87.9705Z" fill="white" />
  </mask>
  <g mask="url(#mask14_906_1961)">
    <mask id="mask15_906_1961" style="mask-type:luminance" maskUnits="userSpaceOnUse" x="-6" y="-3" width="177" height="170">
      <path d="M59.0266 -2.73413L170.242 79.8827L105.826 166.606L-5.39323 83.9776L59.0266 -2.73413Z" fill="white" />
    </mask>
    <g mask="url(#mask15_906_1961)">
      <mask id="mask16_906_1961" style="mask-type:luminance" maskUnits="userSpaceOnUse" x="-6" y="-3" width="177" height="170">
        <path d="M59.0266 -2.73413L170.242 79.8827L105.826 166.606L-5.39323 83.9776L59.0266 -2.73413Z" fill="white" />
      </mask>
      <g mask="url(#mask16_906_1961)">
        <path d="M128.064 120.967C117.655 123.275 107.801 119.685 106.067 112.938C104.322 106.195 111.366 98.8536 121.775 96.5458C132.192 94.2223 142.046 97.812 143.779 104.559C145.525 111.302 138.481 118.644 128.064 120.967Z" fill="#15FF00" />
      </g>
    </g>
  </g>
</svg>