<svg width="18" height="14" viewBox="0 0 18 14" fill="none" xmlns="http://www.w3.org/2000/svg">
  <mask id="mask0_1048_752" style="mask-type:luminance" maskUnits="userSpaceOnUse" x="0" y="1" width="18" height="13">
    <path d="M0 1.89746H17.3076V13.7766H0V1.89746Z" fill="white" />
  </mask>
  <g mask="url(#mask0_1048_752)">
    <path d="M10.5169 8.04609C10.3832 8.16497 10.2418 8.27003 10.0931 8.36178C9.94401 8.45402 9.78979 8.53096 9.63001 8.59361C9.47022 8.65674 9.30703 8.7036 9.14041 8.73567C8.97379 8.76723 8.80632 8.78302 8.63757 8.78302C8.46882 8.78302 8.30092 8.76723 8.1343 8.73567C7.96769 8.7036 7.80449 8.65674 7.64471 8.59361C7.48493 8.53096 7.3307 8.45402 7.18202 8.36178C7.03292 8.27003 6.89151 8.16497 6.75779 8.04609L0.00683594 2.11861V11.6656C0.00683594 11.7357 0.00982644 11.8052 0.0158076 11.8748C0.0217886 11.9443 0.0307603 12.0134 0.0422953 12.0819C0.0542575 12.1505 0.0687831 12.2186 0.0867264 12.2852C0.104243 12.3522 0.124322 12.4178 0.147819 12.4825C0.170889 12.5471 0.196522 12.6102 0.225146 12.6719C0.25377 12.7335 0.284957 12.7937 0.318708 12.8514C0.352031 12.9096 0.388345 12.9658 0.426795 13.0201C0.464818 13.0739 0.505404 13.1257 0.548553 13.175C0.591275 13.2248 0.636134 13.2717 0.682701 13.3156C0.729695 13.36 0.778398 13.4019 0.828811 13.4404C0.878795 13.4793 0.930917 13.5153 0.984319 13.5484C1.03772 13.5814 1.09241 13.611 1.14837 13.6377C1.20434 13.6648 1.26116 13.688 1.31926 13.7082C1.37694 13.7289 1.43589 13.7457 1.49528 13.7595C1.55466 13.7728 1.61447 13.7832 1.67471 13.7901C1.73495 13.797 1.79519 13.8004 1.85585 13.8004H15.4142C15.4748 13.8004 15.5351 13.797 15.5953 13.7901C15.6555 13.7832 15.7154 13.7728 15.7747 13.7595C15.8341 13.7457 15.8931 13.7289 15.9508 13.7082C16.0089 13.688 16.0657 13.6648 16.1216 13.6377C16.1776 13.611 16.2323 13.5814 16.2857 13.5484C16.3391 13.5153 16.3908 13.4793 16.4412 13.4404C16.4916 13.4019 16.5403 13.36 16.5869 13.3156C16.6339 13.2717 16.6787 13.2248 16.7215 13.175C16.7642 13.1257 16.8048 13.0739 16.8432 13.0201C16.8817 12.9658 16.9176 12.9096 16.9513 12.8514C16.9851 12.7937 17.0162 12.7335 17.0449 12.6719C17.0731 12.6102 17.0991 12.5471 17.1222 12.4825C17.1453 12.4178 17.1658 12.3522 17.1833 12.2852C17.2008 12.2186 17.2158 12.1505 17.2273 12.0819C17.2393 12.0134 17.2482 11.9443 17.2542 11.8748C17.2602 11.8052 17.2632 11.7357 17.2632 11.6656V1.97803L10.5169 8.04609Z" fill="white" />
  </g>
  <mask id="mask1_1048_752" style="mask-type:luminance" maskUnits="userSpaceOnUse" x="0" y="0" width="17" height="8">
    <path d="M0.245117 0H16.9785V7.88276H0.245117V0Z" fill="white" />
  </mask>
  <g mask="url(#mask1_1048_752)">
    <path d="M7.485 7.34856C7.56532 7.42008 7.64991 7.48322 7.73963 7.53847C7.82891 7.59371 7.92162 7.64008 8.01732 7.67757C8.11344 7.71505 8.21128 7.74366 8.31125 7.76241C8.41122 7.78164 8.51204 7.79101 8.61329 7.79101C8.71455 7.79101 8.81537 7.78164 8.91534 7.76241C9.01531 7.74366 9.11314 7.71505 9.20927 7.67757C9.30497 7.64008 9.39767 7.59371 9.48696 7.53847C9.57625 7.48322 9.66127 7.42008 9.74159 7.34856L16.9031 0.906609C16.8181 0.766523 16.7198 0.640249 16.6083 0.527293C16.4972 0.41483 16.3755 0.319138 16.2443 0.240217C16.1132 0.161295 15.9752 0.101611 15.8316 0.0606708C15.6877 0.0202235 15.542 0 15.3937 0H1.83542C1.67863 0.000493227 1.52398 0.0236764 1.37231 0.0695494C1.22065 0.115422 1.07625 0.182506 0.939537 0.270799C0.802399 0.359092 0.67765 0.466129 0.564009 0.591417C0.450795 0.716704 0.352962 0.856296 0.270508 1.01019L7.485 7.34856Z" fill="white" />
  </g>
</svg>