<svg width="37" height="37" viewBox="0 0 37 37" fill="none" xmlns="http://www.w3.org/2000/svg">
  <path d="M37.0003 18.9258C37.0003 17.6682 36.8963 16.4039 36.6744 15.1667H18.873V22.2905H29.067C28.644 24.5881 27.2848 26.6205 25.2946 27.912V32.5343H31.3763C34.9476 29.3123 37.0003 24.5541 37.0003 18.9258Z" fill="#4285F4" />
  <path d="M18.873 36.9999C23.963 36.9999 28.2556 35.3617 31.3831 32.5339L25.3014 27.9116C23.6093 29.04 21.4249 29.679 18.8799 29.679C13.9563 29.679 9.78159 26.423 8.2837 22.0454H2.00781V26.8105C5.21164 33.0573 11.7372 36.9999 18.873 36.9999Z" fill="#34A853" />
  <path d="M8.27654 22.0465C7.48599 19.749 7.48599 17.2611 8.27654 14.9635V10.1985H2.00759C-0.669197 15.4258 -0.669197 21.5843 2.00759 26.8116L8.27654 22.0465Z" fill="#FBBC04" />
  <path d="M18.873 7.32215C21.5636 7.28136 24.1641 8.2738 26.1128 10.0955L31.501 4.81387C28.0892 1.67343 23.5608 -0.0531333 18.873 0.00124665C11.7372 0.00124665 5.21164 3.94379 2.00781 10.1975L8.27677 14.9625C9.76772 10.5781 13.9493 7.32215 18.873 7.32215Z" fill="#FE2C25" />
</svg>