<svg width="15" height="17" viewBox="0 0 15 17" fill="none" xmlns="http://www.w3.org/2000/svg">
  <path fill-rule="evenodd" clip-rule="evenodd" d="M7.1375 0C11.0794 0 14.275 1.84414 14.275 4.11907C14.275 5.79182 8.45769 13.5851 7.11847 15.6263C5.21735 12.7286 1.31642 7.83174 0.189346 5.06486L0.188616 5.06373C0.0651825 4.76037 0 4.44412 0 4.11907C0 1.84414 3.19559 0 7.1375 0ZM7.1375 1.9321C9.0146 1.9321 10.5363 2.91005 10.5363 4.11641C10.5363 5.32277 9.0146 6.30072 7.1375 6.30072C5.2604 6.30072 3.7387 5.32277 3.7387 4.11641C3.7387 2.91005 5.2604 1.9321 7.1375 1.9321Z" fill="white" />
  <path fill-rule="evenodd" clip-rule="evenodd" d="M12.4471 15.2286C12.4471 14.5118 11.0641 13.8779 9.01785 13.6286C8.52284 14.3303 8.01701 15.0346 7.55179 15.7437L7.11807 16.4047L6.68441 15.7437L5.29369 13.624C3.22687 13.8702 1.82715 14.5074 1.82715 15.2286C1.82715 16.1735 4.20449 16.9396 7.1371 16.9396C10.0697 16.9396 12.4471 16.1735 12.4471 15.2286Z" fill="white" />
</svg>