<svg width="44" height="66" viewBox="0 0 44 66" fill="none" xmlns="http://www.w3.org/2000/svg">
  <mask id="mask0_1049_851" style="mask-type:luminance" maskUnits="userSpaceOnUse" x="8" y="0" width="28" height="28">
    <path d="M8.59863 0H35.2068V27.269H8.59863V0Z" fill="white" />
  </mask>
  <g mask="url(#mask0_1049_851)">
    <path d="M21.8569 26.9201H21.8428C20.0955 26.9201 18.4185 26.5803 16.8089 25.8922C15.1964 25.2069 13.7806 24.2332 12.5558 22.9654C11.3198 21.7033 10.3675 20.2499 9.69893 18.6023C9.02754 16.9576 8.69326 15.2415 8.68764 13.4598C8.67078 9.83913 10.2018 6.27845 12.8929 3.70003C15.4211 1.27294 18.7106 -0.00342196 21.9215 0.202167C25.0902 0.0279876 28.3404 1.31292 30.8461 3.73429C33.5204 6.31843 35.043 9.87625 35.0261 13.494C35.0233 15.2758 34.6834 16.989 34.012 18.6338C33.3406 20.2785 32.3855 21.729 31.1467 22.9882C29.9219 24.2503 28.5005 25.2212 26.8908 25.9036C25.2784 26.586 23.6013 26.923 21.8569 26.9201Z" fill="#0C7203" />
  </g>
  <mask id="mask1_1049_851" style="mask-type:luminance" maskUnits="userSpaceOnUse" x="0" y="28" width="44" height="38">
    <path d="M0 28.731H43.6652V65.7512H0V28.731Z" fill="white" />
  </mask>
  <g mask="url(#mask1_1049_851)">
    <path d="M21.79 65.7483C18.8629 65.7455 15.9751 65.4028 13.1239 64.7204C10.2754 64.0379 7.53928 63.0328 4.91836 61.7079C1.52211 59.9861 -0.000442602 58.5955 0.123159 57.3363L1.74965 40.9206C1.75527 38.3251 2.70195 35.8666 4.48575 33.805C6.21337 31.8091 8.66575 30.3214 11.3934 29.6161C12.6098 29.3106 13.843 29.1593 15.0959 29.1678H29.0826C32.476 29.3763 35.6222 30.6926 37.9482 32.8713C40.2714 35.0499 41.5692 37.9139 41.5776 40.9149L43.5103 57.2021C43.6592 58.4699 42.1731 59.8633 38.8303 61.5966C36.2037 62.95 33.4592 63.978 30.5995 64.6775C27.737 65.38 24.8351 65.7369 21.8912 65.7455L21.79 65.7483Z" fill="#0C7203" />
  </g>
</svg>